<svg role="img" aria-label="Cong Thien Agency signature logo" fill="#2F66F5" xmlns="http://www.w3.org/2000/svg" width="3495" height="844" viewBox="0 0 3495 844" version="1.1">
	<path d="M 2391.590 32.855 C 2391.299 33.325, 2388.420 34.673, 2385.191 35.850 L 2379.320 37.991 2372.732 45.745 C 2369.109 50.010, 2364.684 55.075, 2362.900 57 C 2355.566 64.911, 2343.067 78.967, 2337.111 86 C 2323.295 102.314, 2321.230 104.634, 2313.750 112.240 C 2309.488 116.575, 2306 120.287, 2306 120.489 C 2306 120.692, 2304.389 122.565, 2302.421 124.652 C 2300.453 126.740, 2299.311 128.604, 2299.883 128.794 C 2300.456 128.985, 2303.157 126.747, 2305.885 123.821 C 2318.725 110.049, 2325.026 103.693, 2325.436 104.102 C 2325.681 104.348, 2322.637 107.913, 2318.671 112.025 C 2314.704 116.136, 2309.226 122.200, 2306.496 125.500 C 2301.420 131.637, 2297.276 136.079, 2274.424 159.881 C 2267.233 167.371, 2258.717 176.425, 2255.500 180 C 2248.250 188.058, 2240.867 195, 2239.549 195 C 2239.002 195, 2240.005 193.675, 2241.777 192.056 C 2243.550 190.437, 2245 188.799, 2245 188.417 C 2245 188.034, 2245.737 187.182, 2246.638 186.523 C 2247.538 185.864, 2248.099 184.796, 2247.883 184.150 C 2247.668 183.503, 2239.168 191.584, 2228.996 202.108 C 2218.823 212.632, 2206.699 224.900, 2202.053 229.371 C 2197.406 233.842, 2183.019 247.778, 2170.079 260.340 C 2157.140 272.902, 2145.259 283.849, 2143.676 284.668 C 2142.093 285.486, 2137.356 286.538, 2133.149 287.005 C 2109.631 289.617, 2058.851 297.554, 2045 300.784 C 2040.282 301.885, 2031.545 303.660, 2014 307.085 C 2008.225 308.213, 1999.450 310.210, 1994.500 311.524 C 1989.550 312.838, 1977.850 315.508, 1968.500 317.458 C 1959.150 319.408, 1946.775 322.597, 1941 324.544 C 1935.225 326.492, 1927.350 328.990, 1923.500 330.095 C 1917.286 331.878, 1905.243 335.883, 1892.060 340.549 C 1879.509 344.992, 1870 352.084, 1870 357.003 C 1870 359.864, 1873.315 362.781, 1877.448 363.556 C 1885.296 365.029, 1913.580 360.226, 1916.579 356.912 C 1919.282 353.926, 1917.695 352, 1912.531 352 C 1910.039 352, 1908 351.544, 1908 350.987 C 1908 348.067, 1942.152 336.535, 1964.500 331.909 C 1966.700 331.454, 1971.200 330.421, 1974.500 329.614 C 1986.703 326.628, 2010.961 321.174, 2015.500 320.395 C 2017.150 320.112, 2021.425 319.253, 2025 318.488 C 2028.575 317.722, 2035.325 316.384, 2040 315.515 C 2044.675 314.645, 2051.425 313.270, 2055 312.459 C 2058.575 311.647, 2062.519 310.987, 2063.765 310.992 C 2065.011 310.996, 2068.611 310.359, 2071.765 309.576 C 2077.780 308.083, 2088.728 306.109, 2105.500 303.493 C 2111 302.635, 2117.865 301.426, 2120.756 300.806 C 2123.646 300.185, 2126.228 299.894, 2126.492 300.159 C 2126.971 300.638, 2092.823 334.799, 2081.583 345.085 C 2078.329 348.063, 2074.479 351.625, 2073.027 353 C 2071.576 354.375, 2064.588 360.900, 2057.498 367.500 C 2050.408 374.100, 2043.210 380.850, 2041.501 382.500 C 2039.792 384.150, 2032.568 390.634, 2025.447 396.910 C 2018.326 403.185, 2008 412.469, 2002.500 417.541 C 1997 422.614, 1987.967 430.529, 1982.426 435.132 C 1972.921 443.029, 1965.660 449.242, 1955.087 458.529 C 1949.115 463.775, 1942.385 469.346, 1926.625 482.089 C 1919.544 487.815, 1910.319 495.333, 1906.125 498.796 L 1898.500 505.092 1890.500 504.522 C 1886.100 504.209, 1873.500 503.285, 1862.500 502.470 C 1812.065 498.733, 1799.897 497.959, 1776.500 497.001 C 1762.750 496.438, 1744.750 495.824, 1736.500 495.636 C 1717.128 495.194, 1667.835 497.421, 1665.377 498.849 C 1663.953 499.676, 1663.862 499.962, 1665 500.033 C 1665.903 500.089, 1665.621 500.480, 1664.293 501.015 C 1663.079 501.504, 1654.529 502.166, 1645.293 502.486 C 1636.057 502.805, 1621.004 503.550, 1611.843 504.139 C 1597.832 505.041, 1592.552 504.943, 1578.606 503.526 L 1562.026 501.840 1541.263 502.915 C 1513.877 504.334, 1494.326 505.723, 1484.500 506.949 C 1474.325 508.219, 1453.607 510.544, 1435 512.504 C 1421.782 513.897, 1412.208 515.150, 1392.500 518.067 C 1355.095 523.602, 1347.745 524.757, 1343 525.843 C 1338.795 526.806, 1334.595 527.586, 1312.250 531.554 C 1307.438 532.408, 1300.575 533.747, 1297 534.529 C 1293.425 535.311, 1288.025 536.372, 1285 536.886 C 1276.455 538.338, 1256.915 543.685, 1255.696 544.904 C 1255.093 545.507, 1252.617 546, 1250.194 546 C 1247.771 546, 1243.249 546.621, 1240.144 547.380 C 1237.040 548.138, 1230.450 549.316, 1225.500 549.996 C 1220.550 550.676, 1214.700 551.692, 1212.500 552.254 C 1206.767 553.718, 1198.106 555.459, 1176.500 559.489 C 1154.958 563.506, 1149.717 564.666, 1128 570.220 C 1085.673 581.045, 1075.142 583.820, 1060.500 588.010 C 1054.450 589.742, 1047.700 591.639, 1045.500 592.226 C 1043.300 592.813, 1041.050 593.603, 1040.500 593.983 C 1039.950 594.362, 1030.050 597.727, 1018.500 601.461 C 1006.950 605.195, 995.700 608.919, 993.500 609.738 C 985.422 612.742, 981.431 614.281, 978.500 615.521 C 971.640 618.422, 970.253 618.990, 965 621.043 C 961.975 622.226, 957.813 623.825, 955.750 624.597 C 951.811 626.071, 950.328 626.639, 935 632.547 C 926.800 635.707, 911.966 642.268, 906.902 644.974 C 906.023 645.443, 901.073 647.634, 895.902 649.843 C 890.731 652.051, 880.875 656.731, 874 660.242 C 864.579 665.053, 861.423 667.147, 861.189 668.745 C 860.675 672.255, 863.906 673.169, 868.910 670.929 C 871.280 669.868, 873.732 669.001, 874.359 669.002 C 875.340 669.005, 881.359 666.626, 893.500 661.438 C 906.492 655.887, 918.654 650.984, 919.415 650.991 C 919.918 650.996, 923.968 649.607, 928.415 647.904 C 932.862 646.201, 938.188 644.176, 940.250 643.404 C 942.313 642.632, 945.913 641.284, 948.250 640.408 C 952.678 638.749, 956.777 637.055, 962.265 634.616 C 964.044 633.825, 966.400 632.951, 967.500 632.674 C 968.600 632.396, 971.975 631.192, 975 629.998 C 978.025 628.804, 981.850 627.451, 983.500 626.991 C 986.092 626.268, 991.072 624.602, 1004.500 619.965 C 1013.509 616.854, 1037.886 608.874, 1047 606.052 C 1052.775 604.264, 1058.850 602.354, 1060.500 601.807 C 1062.150 601.260, 1065.750 600.218, 1068.500 599.490 C 1071.250 598.762, 1075.975 597.426, 1079 596.521 C 1084.717 594.810, 1091.286 592.983, 1100.250 590.610 C 1103.138 589.846, 1108.895 588.294, 1113.044 587.161 C 1136.503 580.754, 1142.733 579.141, 1158 575.516 C 1169.068 572.888, 1173.605 571.768, 1178.500 570.456 C 1181.250 569.719, 1187.100 568.365, 1191.500 567.448 C 1202.595 565.134, 1210.156 563.427, 1219.500 561.127 C 1234.682 557.391, 1255.242 553.282, 1277.500 549.537 C 1283 548.611, 1290.489 547.212, 1294.143 546.427 C 1297.797 545.642, 1302.155 545, 1303.828 545 C 1305.501 545, 1308.055 544.549, 1309.505 543.998 C 1310.954 543.447, 1315.596 542.568, 1319.820 542.045 C 1324.044 541.522, 1330.650 540.594, 1334.500 539.984 C 1382.389 532.392, 1407.009 528.975, 1453.746 523.431 C 1469.621 521.548, 1507.736 517.948, 1563.500 513.065 C 1576.150 511.957, 1592.800 510.477, 1600.500 509.775 C 1622.506 507.771, 1754.139 508.084, 1804 510.259 C 1849.750 512.256, 1883 514.898, 1883 516.537 C 1883 517.143, 1879.963 519.926, 1876.250 522.721 C 1846.781 544.910, 1814.041 569.245, 1808.811 572.846 C 1790.783 585.260, 1748.267 612, 1746.558 612 C 1746.229 612, 1744.282 613.049, 1742.230 614.331 C 1735.685 618.421, 1719.760 626.518, 1711.608 629.901 C 1693.917 637.242, 1679.748 640.964, 1669.405 640.985 C 1663.568 640.997, 1661.989 640.645, 1660.500 639 C 1658.181 636.437, 1655.594 636.470, 1651.313 639.115 C 1648.461 640.878, 1647.941 641.736, 1648.195 644.261 L 1648.500 647.292 1653 648.631 C 1655.475 649.367, 1659.525 649.968, 1662 649.966 C 1667.511 649.962, 1682.371 647.407, 1684.970 646.016 C 1686.014 645.457, 1687.759 645, 1688.848 645 C 1690.588 645, 1706.033 639.573, 1711.500 637.040 C 1712.600 636.531, 1716.200 634.926, 1719.500 633.475 C 1737.457 625.575, 1754.921 617.005, 1763.068 612.094 C 1764.955 610.956, 1767.444 609.607, 1768.597 609.095 C 1770.315 608.334, 1778.665 603.503, 1786 599.028 C 1786.825 598.524, 1791.755 595.536, 1796.955 592.388 C 1802.156 589.239, 1811.381 583.362, 1817.455 579.327 C 1831.912 569.724, 1830.431 570.722, 1839 564.805 C 1843.125 561.957, 1849.425 557.618, 1853 555.163 C 1856.575 552.709, 1862.425 548.679, 1866 546.208 C 1869.575 543.737, 1879.250 536.459, 1887.500 530.035 C 1895.750 523.611, 1902.990 518.068, 1903.590 517.718 C 1904.729 517.051, 1916.860 517.950, 1940.500 520.454 C 1953.718 521.854, 1964.575 523.207, 1989 526.499 C 1994.775 527.277, 2004.675 528.577, 2011 529.387 C 2037.219 532.745, 2114.035 545.232, 2147 551.494 C 2151.675 552.382, 2157.975 553.515, 2161 554.010 C 2164.025 554.506, 2172.088 556.056, 2178.919 557.456 C 2192.482 560.235, 2194 560.407, 2194 559.172 C 2194 558.369, 2181.292 554.654, 2168 551.572 C 2164.425 550.743, 2154.600 548.458, 2146.166 546.494 C 2130.744 542.902, 2119.140 540.523, 2102.500 537.538 C 2097.550 536.651, 2088.775 535.068, 2083 534.022 C 2077.225 532.976, 2068.450 531.411, 2063.500 530.545 C 2058.550 529.678, 2052.250 528.511, 2049.500 527.952 C 2046.750 527.392, 2041.575 526.516, 2038 526.005 C 2031.772 525.115, 2020.735 523.238, 2009 521.075 C 2000.874 519.577, 1985.165 517.267, 1971 515.487 C 1952.496 513.162, 1931.051 510.059, 1926.500 509.049 C 1924.300 508.561, 1921.263 508.403, 1919.750 508.698 C 1917.733 509.090, 1917 508.833, 1917 507.732 C 1917 506.906, 1918.237 505.428, 1919.750 504.447 C 1922.515 502.655, 1933.117 493.923, 1971 462.240 C 1995.573 441.689, 2015.576 424.321, 2037.423 404.568 C 2042.330 400.130, 2049.080 394.057, 2052.423 391.071 C 2055.765 388.086, 2065.430 379.086, 2073.900 371.071 C 2082.370 363.057, 2089.820 356.050, 2090.456 355.500 C 2093.672 352.719, 2114.692 332.417, 2132.090 315.288 L 2151.680 296 2157.090 296.003 C 2160.066 296.004, 2165.425 295.366, 2169 294.586 C 2179.721 292.244, 2209.538 288.416, 2235.500 286.048 C 2242.100 285.446, 2250.088 284.717, 2253.250 284.427 C 2259.509 283.854, 2260.322 284.668, 2257.506 288.688 C 2255.908 290.969, 2247.719 307.236, 2244.009 315.500 C 2242.774 318.250, 2240.416 323.425, 2238.769 327 C 2237.122 330.575, 2234.643 335.975, 2233.261 339 C 2231.878 342.025, 2227.705 350.800, 2223.986 358.500 C 2212.942 381.366, 2208.378 391.125, 2205.512 398 C 2204.021 401.575, 2201.093 408.325, 2199.004 413 C 2196.914 417.675, 2194.207 423.975, 2192.986 427 C 2191.765 430.025, 2189.410 435.425, 2187.752 439 C 2186.094 442.575, 2182.986 449.325, 2180.844 454 C 2178.703 458.675, 2176.287 463.694, 2175.475 465.154 C 2174.664 466.614, 2174 468.300, 2174 468.902 C 2174 469.882, 2171.453 475.799, 2165.993 487.500 C 2159.788 500.800, 2156.062 511.146, 2156.025 515.177 C 2155.993 518.614, 2160.181 522, 2164.463 522 C 2168.174 522, 2174.736 517.937, 2180.362 512.155 C 2183.506 508.924, 2184.311 507.284, 2184.689 503.343 C 2185.292 497.053, 2186.098 494.652, 2191.849 482 C 2193.474 478.425, 2196.445 471.450, 2198.452 466.500 C 2202.604 456.254, 2202.608 456.246, 2207.429 445.661 C 2209.393 441.349, 2211 437.663, 2211 437.470 C 2211 437.122, 2215.698 426.955, 2222.999 411.500 C 2225.078 407.100, 2228.007 400.800, 2229.509 397.500 C 2231.010 394.200, 2234.398 387, 2237.038 381.500 C 2239.679 376, 2243.840 367.225, 2246.286 362 C 2248.733 356.775, 2256.361 341.025, 2263.239 327 C 2277.985 296.930, 2283 286.267, 2283 284.985 C 2283 284.469, 2284.012 283.396, 2285.250 282.602 C 2287.413 281.214, 2292.184 280.757, 2343.557 277.022 C 2362.051 275.677, 2376.066 275.729, 2383.027 277.166 L 2388.674 278.333 2393.415 276.416 C 2398.523 274.352, 2400.459 272.020, 2399.520 269.062 C 2398.592 266.140, 2395.085 265.858, 2379.257 267.437 C 2371.140 268.246, 2351.450 269.384, 2335.500 269.966 C 2319.550 270.548, 2303.211 271.211, 2299.191 271.439 C 2293.617 271.756, 2291.756 271.528, 2291.354 270.479 C 2291.063 269.722, 2294.015 262.581, 2297.913 254.609 C 2301.811 246.637, 2305 239.897, 2305 239.631 C 2305 238.878, 2346.311 154.593, 2348.931 150 C 2349.401 149.175, 2350.281 147.375, 2350.886 146 C 2351.491 144.625, 2352.401 142.825, 2352.908 142 C 2353.416 141.175, 2357.989 131.950, 2363.070 121.500 C 2370.997 105.196, 2377.033 93.521, 2387.369 74.500 C 2388.565 72.300, 2391.056 67.013, 2392.906 62.750 C 2394.756 58.487, 2396.576 55, 2396.951 55 C 2397.714 55, 2401.566 45.933, 2402.535 41.858 C 2403.255 38.828, 2400.933 33.572, 2398.455 32.621 C 2396.119 31.725, 2392.206 31.858, 2391.590 32.855 M 526.838 37.971 C 505.066 40.738, 470.999 48.983, 453.500 55.719 C 446.837 58.284, 437.838 63.505, 438.661 64.328 C 439.023 64.690, 437.898 65.270, 436.160 65.618 C 434.422 65.966, 433 66.869, 433 67.625 C 433 68.381, 432.190 69, 431.200 69 C 430.210 69, 428.973 69.399, 428.450 69.886 C 427.370 70.894, 411.074 78, 409.843 78 C 409.401 78, 405.092 79.878, 400.269 82.173 C 395.446 84.469, 390.842 86.468, 390.038 86.616 C 389.234 86.764, 384.959 88.675, 380.538 90.862 C 376.117 93.050, 370.250 95.833, 367.500 97.048 C 364.750 98.262, 362.275 99.536, 362 99.879 C 361.725 100.222, 359.475 101.531, 357 102.789 C 352.410 105.121, 350.354 106.221, 347.250 108.006 C 346.288 108.560, 344.825 109.278, 344 109.603 C 339.549 111.355, 335.405 113.648, 334.700 114.750 C 334.260 115.438, 333.337 116, 332.649 116 C 327.621 116, 273.715 149.518, 253.813 165.019 C 250.891 167.295, 242.906 173.170, 236.069 178.075 C 213.459 194.295, 168.645 234.676, 154.955 251.164 C 152.062 254.649, 143.949 263.350, 136.927 270.500 C 120.704 287.018, 107 304.435, 107 308.537 C 107 309.403, 104.750 312.270, 102 314.907 C 98.464 318.297, 97 320.477, 97 322.350 C 97 323.808, 96.550 325, 96 325 C 95.450 325, 94.993 324.438, 94.985 323.750 C 94.956 321.430, 93.031 325.398, 93.015 327.809 C 93.007 329.079, 92.632 329.891, 92.182 329.613 C 91.732 329.335, 90.721 329.999, 89.935 331.090 C 89.149 332.181, 86.352 335.419, 83.719 338.286 C 76.303 346.362, 62.648 367.440, 54.615 383.210 C 50.611 391.069, 47.072 398.400, 46.750 399.500 C 46.429 400.600, 44.423 406, 42.293 411.500 C 35.572 428.856, 31.984 448.420, 32.022 467.500 C 32.036 474.650, 32.493 482.300, 33.036 484.500 C 33.580 486.700, 34.460 490.650, 34.992 493.278 C 37.150 503.941, 43.709 517.102, 51.454 526.309 C 59.996 536.462, 78.408 547.992, 92.500 552.013 C 113.333 557.958, 135.341 559.974, 159.491 558.150 C 168.485 557.471, 176.666 556.764, 177.672 556.578 C 178.677 556.393, 182.875 555.718, 187 555.078 C 191.125 554.438, 196.615 553.448, 199.199 552.878 C 201.783 552.308, 206.283 551.447, 209.199 550.964 C 217.187 549.642, 224.877 547.693, 242.500 542.522 C 251.300 539.940, 260.075 537.395, 262 536.867 C 263.925 536.338, 266.400 535.537, 267.500 535.087 C 275.252 531.912, 280.781 530, 282.210 530 C 283.130 530, 284.139 529.585, 284.452 529.077 C 284.766 528.569, 286.466 527.837, 288.229 527.450 C 289.992 527.063, 292.124 526.363, 292.967 525.894 C 293.810 525.426, 298.325 523.629, 303 521.900 C 310.348 519.183, 336.492 508.455, 345.500 504.460 C 358.492 498.699, 418.133 468.595, 438.500 457.518 C 447.982 452.361, 467.731 440.935, 477.500 434.955 C 481.900 432.261, 486.400 429.587, 487.500 429.013 C 488.600 428.440, 490.850 427.082, 492.500 425.996 C 494.150 424.910, 496.175 423.701, 497 423.308 C 497.825 422.916, 500.300 421.389, 502.500 419.915 C 504.700 418.442, 508.075 416.380, 510 415.334 C 511.925 414.288, 518.225 410.298, 524 406.466 C 529.775 402.635, 534.981 399.275, 535.569 399 C 537.489 398.102, 583.328 366.911, 586.524 364.328 C 592.825 359.233, 599 355.883, 599 357.559 C 599 357.867, 597.225 361.804, 595.055 366.309 C 587.602 381.784, 585.721 390.092, 588.642 394.621 C 595.426 405.138, 609.389 405.600, 626 395.858 C 636.475 389.714, 649.681 376.839, 657.004 365.633 L 660.999 359.519 673.749 357.311 C 680.762 356.096, 688.975 354.431, 692 353.611 C 695.025 352.791, 700.136 351.391, 703.357 350.501 C 709.632 348.766, 711.106 349.089, 709.285 351.798 C 708.655 352.734, 705.805 357.550, 702.952 362.500 C 700.098 367.450, 695.166 375.550, 691.990 380.500 C 684.798 391.712, 684.285 393.285, 686.949 395.949 C 688.454 397.454, 690.293 398, 693.860 398 C 699.583 398, 703.435 395.744, 712.500 387.085 C 715.800 383.933, 722.100 378.237, 726.500 374.427 C 730.900 370.617, 734.725 367.249, 735 366.943 C 736.652 365.102, 754.233 352.466, 759.500 349.335 C 770.082 343.043, 770.567 343.427, 770.152 357.781 C 769.966 364.200, 770.301 369.704, 770.988 371.500 C 775.108 382.288, 788.706 385.927, 804.190 380.383 C 811.073 377.919, 829.262 368.927, 837 364.163 C 840.586 361.955, 843 361.397, 843 362.777 C 843 363.204, 841.273 365.852, 839.162 368.661 C 834.358 375.056, 832.269 381.825, 833.894 385.738 C 836.266 391.447, 843.871 393.384, 853.018 390.607 C 865.132 386.929, 887.338 372.408, 900.950 359.263 C 903.947 356.368, 906.759 354, 907.200 354 C 908.460 354, 908.137 356.940, 906.557 359.846 C 905.764 361.306, 903.453 366.325, 901.423 371 C 897.653 379.681, 888.979 397.271, 875.859 422.842 C 867.733 438.678, 868.592 437.863, 854 443.593 C 848.775 445.645, 840.900 448.992, 836.500 451.032 C 832.100 453.071, 822.425 457.354, 815 460.550 C 807.575 463.745, 799.250 467.564, 796.500 469.037 C 783.300 476.106, 775.462 480.253, 763.500 486.496 C 743.888 496.730, 722.713 510.254, 688.998 534.079 C 671.798 546.233, 655.042 559.726, 642.336 571.652 C 635.345 578.214, 632.094 581, 631.425 581 C 629.913 581, 604.547 606.132, 596.500 615.603 C 593.750 618.839, 589.217 623.965, 586.426 626.994 C 575.052 639.336, 564.735 654.821, 553.790 675.974 C 542.714 697.382, 538.962 719.072, 544.460 729.921 C 548.020 736.947, 556.864 743.986, 564 745.475 C 574.942 747.758, 581.221 748.018, 590.257 746.564 C 607.404 743.805, 620.250 739.498, 638.432 730.412 C 672.805 713.234, 704.337 689.573, 739.597 654.500 C 775.119 619.165, 800.922 587.422, 833.513 538.962 C 847.123 518.723, 860 498.520, 860 497.403 C 860 497.215, 862.187 493.335, 864.860 488.781 C 870.605 478.993, 877.869 465.512, 885.201 451.037 C 888.788 443.955, 891.308 440.186, 893 439.370 C 897.235 437.329, 925.959 428.827, 940.250 425.385 C 943.413 424.623, 948.813 423.315, 952.250 422.477 C 974.183 417.133, 1003.824 413.500, 1025.500 413.500 L 1043.500 413.500 1047.500 415.398 C 1052.342 417.695, 1053.170 418.813, 1051.853 421.274 C 1048.890 426.811, 1057.894 428.033, 1064.798 423.031 C 1069.774 419.427, 1071.005 417.295, 1070.985 412.316 C 1070.965 407.387, 1070.381 406.576, 1064.659 403.533 L 1059.894 401 1044.697 401.006 C 1036.339 401.009, 1026.800 401.486, 1023.500 402.066 C 1020.200 402.645, 1011.650 403.756, 1004.500 404.534 C 981.503 407.037, 962.868 410.945, 916 423.096 C 909.675 424.736, 903.055 426.828, 901.289 427.745 C 899.524 428.662, 897.774 429.107, 897.401 428.735 C 897.029 428.362, 898.586 424.228, 900.862 419.549 C 903.138 414.870, 905 410.588, 905 410.035 C 905 409.482, 906.323 406.435, 907.939 403.265 C 914.564 390.272, 925.654 363.607, 929.052 352.500 C 929.557 350.850, 930.364 348.600, 930.846 347.500 C 934.264 339.701, 935 337.791, 935.004 336.716 C 935.006 336.047, 936.354 332.800, 938 329.500 C 941.485 322.512, 941.659 320.906, 939.171 318.655 C 936.632 316.357, 932.371 316.636, 926.564 319.480 L 921.629 321.897 917.840 318.474 C 915.756 316.591, 912.885 314.758, 911.460 314.401 C 904.461 312.644, 888.086 319.163, 877.889 327.766 C 865.426 338.280, 858.123 343.616, 850.650 347.666 C 846.333 350.006, 842.283 352.340, 841.650 352.853 C 841.018 353.366, 834.188 356.964, 826.473 360.848 C 807.637 370.330, 798.032 372.812, 793.217 369.439 C 788.575 366.188, 787.735 362.727, 788.500 350 C 789.639 331.043, 786.890 328.334, 771.355 333.105 C 757.615 337.325, 736.138 348.967, 729.959 355.544 C 728.690 356.895, 727.280 358, 726.826 358 C 725.021 358, 726.156 353.588, 728.846 350.144 C 730.412 348.140, 734.061 342.465, 736.956 337.534 C 739.851 332.602, 743.970 325.989, 746.110 322.838 C 750.327 316.628, 750.866 314.009, 748.429 311.571 C 746.164 309.307, 741.654 309.635, 736.055 312.472 C 730.701 315.185, 728.771 317.480, 724.208 326.560 C 722.533 329.893, 720.548 333.130, 719.797 333.754 C 715.443 337.367, 691.960 343.614, 672.171 346.422 C 668.904 346.886, 668.489 344.881, 670.426 337.977 C 671.344 334.706, 672.105 328.844, 672.118 324.951 L 672.140 317.872 669.518 314.435 C 664.450 307.790, 658.761 306.574, 648.165 309.872 C 635.681 313.757, 626.896 320.279, 611.477 337.109 C 609.264 339.524, 601.483 345.775, 594.185 351 C 586.887 356.225, 580.292 361.063, 579.529 361.750 C 578.767 362.438, 577.867 363, 577.531 363 C 576.962 363, 571.123 366.877, 570 368 C 569.116 368.884, 565.565 370.977, 563.250 371.978 C 562.013 372.513, 561 373.412, 561 373.975 C 561 374.539, 560.277 375, 559.394 375 C 558.511 375, 556.083 376.350, 554 378 C 551.917 379.650, 549.815 381, 549.329 381 C 548.843 381, 546.968 382.350, 545.161 384 C 543.355 385.650, 541.215 387, 540.407 387 C 539.599 387, 538.678 387.675, 538.362 388.500 C 538.045 389.325, 536.934 390, 535.893 390 C 534.852 390, 534 390.461, 534 391.025 C 534 391.588, 532.875 392.477, 531.500 393 C 530.125 393.523, 529 394.412, 529 394.975 C 529 395.539, 528.100 396, 527 396 C 525.900 396, 525 396.425, 525 396.945 C 525 397.848, 522.110 399.704, 517.250 401.923 C 516.013 402.488, 515 403.412, 515 403.975 C 515 404.539, 513.923 405, 512.607 405 C 511.291 405, 509.955 405.675, 509.638 406.500 C 509.322 407.325, 508.135 408, 507 408 C 505.865 408, 504.678 408.675, 504.362 409.500 C 504.045 410.325, 502.920 411, 501.862 411 C 500.803 411, 499.678 411.675, 499.362 412.500 C 499.045 413.325, 497.920 414, 496.862 414 C 495.803 414, 494.678 414.675, 494.362 415.500 C 494.045 416.325, 492.920 417, 491.862 417 C 490.803 417, 489.678 417.675, 489.362 418.500 C 489.045 419.325, 487.934 420, 486.893 420 C 485.852 420, 485 420.675, 485 421.500 C 485 422.415, 484.067 423, 482.607 423 C 481.291 423, 479.955 423.675, 479.638 424.500 C 479.322 425.325, 478.135 426, 477 426 C 475.865 426, 474.678 426.675, 474.362 427.500 C 474.045 428.325, 472.982 429, 472 429 C 471.018 429, 469.955 429.675, 469.638 430.500 C 469.322 431.325, 468.429 432, 467.654 432 C 466.879 432, 465.685 432.675, 465 433.500 C 464.315 434.325, 462.896 435, 461.846 435 C 460.796 435, 459.678 435.675, 459.362 436.500 C 459.045 437.325, 457.709 438, 456.393 438 C 454.933 438, 454 438.585, 454 439.500 C 454 440.415, 453.067 441, 451.607 441 C 450.291 441, 448.955 441.675, 448.638 442.500 C 448.322 443.325, 446.924 444, 445.531 444 C 443.948 444, 443 444.562, 443 445.500 C 443 446.438, 442.052 447, 440.469 447 C 439.076 447, 437.678 447.675, 437.362 448.500 C 437.045 449.325, 436.096 450, 435.253 450 C 434.410 450, 433.209 450.700, 432.583 451.556 C 431.957 452.412, 430.779 453.209, 429.966 453.329 C 429.152 453.448, 427.404 454.304, 426.080 455.231 C 424.757 456.158, 423.294 456.682, 422.830 456.395 C 422.366 456.108, 421.716 456.577, 421.386 457.437 C 421.056 458.296, 419.741 459, 418.464 459 C 417.188 459, 415.468 459.675, 414.643 460.500 C 413.818 461.325, 412.491 462, 411.694 462 C 410.897 462, 409.685 462.675, 409 463.500 C 408.315 464.325, 406.958 465, 405.985 465 C 405.011 465, 403.971 465.633, 403.675 466.406 C 403.378 467.179, 401.755 468.115, 400.068 468.485 C 398.380 468.856, 397 469.487, 397 469.887 C 397 470.682, 389.970 474, 388.286 474 C 387.714 474, 386.685 474.675, 386 475.500 C 385.315 476.325, 383.740 477, 382.500 477 C 381.260 477, 379.730 477.621, 379.100 478.379 C 378.470 479.138, 376.585 480.033, 374.911 480.368 C 373.222 480.706, 372.146 481.427, 372.493 481.988 C 372.860 482.583, 371.907 483, 370.181 483 C 368.566 483, 366.685 483.675, 366 484.500 C 365.315 485.325, 363.965 486, 363 486 C 362.035 486, 360.685 486.675, 360 487.500 C 359.315 488.325, 357.965 489, 357 489 C 356.035 489, 354.685 489.675, 354 490.500 C 353.315 491.325, 351.827 492, 350.693 492 C 348.408 492, 340.333 495.652, 339.447 497.087 C 339.136 497.589, 338.045 498, 337.022 498 C 335.999 498, 333.888 498.659, 332.331 499.465 C 330.774 500.270, 324.325 502.801, 318 505.089 C 311.675 507.376, 305.150 509.826, 303.500 510.532 C 300.475 511.827, 287.160 516.241, 277 519.317 C 273.975 520.233, 268.675 521.895, 265.223 523.011 C 261.770 524.127, 256.370 525.756, 253.223 526.631 C 250.075 527.506, 245.250 528.865, 242.500 529.652 C 229.536 533.360, 201.254 539.033, 190 540.183 C 171.399 542.083, 141.409 541.821, 131.500 539.672 C 100.282 532.899, 78.421 518.995, 68.337 499.500 C 64.001 491.117, 60.666 480.939, 59.490 472.500 C 58.178 463.082, 59.034 441.924, 61.047 434 C 61.537 432.075, 62.208 428.700, 62.539 426.500 C 63.498 420.126, 67.911 406.603, 72.982 394.500 C 75.537 388.401, 78.314 382.198, 79.472 380 C 80.197 378.625, 83.467 372.325, 86.738 366 C 101.244 337.956, 118.022 314.184, 147.437 280 C 178.450 243.959, 233.099 194.798, 274.500 165.698 C 285.034 158.294, 307.477 142.899, 310.505 141 C 323.144 133.074, 332.420 127.320, 333.944 126.461 C 334.957 125.889, 336.397 124.934, 337.143 124.337 C 337.890 123.741, 341.650 121.546, 345.500 119.460 C 349.350 117.373, 354.525 114.561, 357 113.211 C 363.403 109.718, 379.689 101.111, 385 98.413 C 390.847 95.443, 403.745 89.596, 416 84.360 C 417.925 83.538, 420.400 82.452, 421.500 81.946 C 425.323 80.191, 447.518 71.831, 450.500 71.023 C 452.150 70.576, 456.875 69.093, 461 67.727 C 465.125 66.361, 471.200 64.492, 474.500 63.574 C 477.800 62.655, 482.750 61.269, 485.500 60.494 C 496.882 57.283, 504.179 55.997, 523 53.883 C 537.123 52.296, 554.449 54.199, 564.247 58.413 C 570.020 60.895, 576.442 68.159, 579.064 75.172 C 580.859 79.972, 581.364 83.442, 581.424 91.390 L 581.500 101.500 577.673 113.336 L 573.846 125.172 575.599 127.110 C 576.943 128.595, 577.078 129.322, 576.176 130.224 C 574.742 131.658, 574.618 135, 576 135 C 576.550 135, 577 134.373, 577 133.607 C 577 132.841, 577.675 131.955, 578.500 131.638 C 579.325 131.322, 580 130.149, 580 129.031 C 580 127.914, 580.576 127, 581.281 127 C 581.985 127, 583.102 125.567, 583.763 123.816 C 584.424 122.065, 585.236 120.903, 585.568 121.235 C 586.141 121.808, 583.896 127.789, 581.902 131 C 581.390 131.825, 580.484 133.738, 579.888 135.250 C 579.292 136.762, 578.398 138, 577.902 138 C 577.406 138, 577 138.643, 577 139.429 C 577 140.214, 576.412 141.452, 575.694 142.179 C 574.976 142.905, 574.090 144.287, 573.725 145.250 C 572.915 147.390, 571 147.566, 571 145.500 C 571 144.675, 570.769 144, 570.487 144 C 569.596 144, 559.812 153.207, 552.517 160.910 C 537.728 176.526, 524.993 189.060, 511.500 201.282 C 492.657 218.349, 487.688 222, 483.298 222 L 479.796 222 472.961 229.183 C 465.509 237.013, 464.267 239.700, 466.219 243.769 C 470.128 251.923, 482.056 249.744, 495.500 238.420 C 530.721 208.755, 558.939 178.898, 574.625 154.702 C 578.262 149.091, 581.967 143.375, 582.857 142 C 586.509 136.360, 590.093 129.449, 594.784 119 C 600.073 107.220, 604.009 90.534, 603.984 80 C 603.961 70.550, 598.154 57.038, 591.690 51.396 C 586.646 46.993, 573.578 40.717, 566 39.056 C 558.978 37.518, 535.516 36.868, 526.838 37.971 M 1633 40.663 C 1570.367 42.683, 1545.763 44.446, 1495.500 50.515 C 1488.900 51.312, 1479.450 52.409, 1474.500 52.951 C 1457.055 54.864, 1447.484 56.057, 1446 56.504 C 1443.607 57.225, 1407.713 62.529, 1395 64.040 C 1390.325 64.596, 1383.182 65.730, 1379.127 66.560 L 1371.753 68.068 1369.412 66.534 C 1366.835 64.846, 1363.419 64.513, 1362.581 65.869 C 1362.286 66.346, 1360.122 67.045, 1357.772 67.420 C 1355.422 67.796, 1351.620 69.205, 1349.322 70.552 C 1347.024 71.898, 1343.996 73, 1342.592 73 C 1338.965 73, 1328.409 75.027, 1297.500 81.657 C 1283.197 84.725, 1277.276 85.915, 1268.500 87.489 C 1255.808 89.766, 1244.418 92.025, 1238 93.540 C 1234.975 94.253, 1228.675 95.588, 1224 96.506 C 1210.447 99.167, 1203.369 100.671, 1189.500 103.837 C 1182.350 105.469, 1172.900 107.583, 1168.500 108.535 C 1158.067 110.792, 1135.996 116.115, 1124 119.267 C 1118.775 120.640, 1111.125 122.511, 1107 123.424 C 1094.067 126.288, 1086.656 128.071, 1082 129.439 C 1079.525 130.166, 1075.025 131.492, 1072 132.384 C 1068.975 133.276, 1061.550 135.351, 1055.500 136.995 C 1032.018 143.376, 1021.676 146.432, 999 153.689 C 971.319 162.549, 966.331 164.209, 959 167.002 C 955.975 168.155, 950.253 170.177, 946.285 171.496 C 933.413 175.774, 922 184.875, 922 190.860 C 922 194.864, 925.724 198, 930.478 198 C 940.060 198, 964.823 192.252, 968.250 189.232 C 970.641 187.125, 970.450 186.122, 967.440 184.977 C 964.170 183.734, 964.929 182.570, 970.251 180.670 C 972.588 179.835, 976.975 178.202, 980 177.040 C 986.707 174.465, 1003.510 168.840, 1011 166.661 C 1026.456 162.167, 1038.447 158.608, 1047.092 155.950 C 1052.368 154.327, 1057.189 153, 1057.807 153 C 1058.425 153, 1060.858 152.372, 1063.215 151.603 C 1066.915 150.397, 1073.118 148.542, 1085.500 144.938 C 1087.150 144.458, 1090.975 143.401, 1094 142.589 C 1097.025 141.778, 1101.975 140.426, 1105 139.587 C 1108.025 138.747, 1117.250 136.446, 1125.500 134.474 C 1133.750 132.502, 1142.750 130.256, 1145.500 129.483 C 1153.120 127.341, 1172.219 122.515, 1184.500 119.629 C 1203.176 115.241, 1259.038 104, 1262.172 104 C 1263.356 104, 1266.614 103.360, 1269.412 102.579 C 1274.974 101.025, 1283.067 99.433, 1305.500 95.478 C 1316.160 93.599, 1329.015 91.329, 1334.250 90.402 C 1338.742 89.607, 1339.200 91.079, 1335.663 94.945 C 1334.377 96.350, 1332.308 99.975, 1331.065 103 C 1329.822 106.025, 1325.923 113.965, 1322.402 120.645 C 1318.881 127.324, 1316 133.534, 1316 134.443 C 1316 136.511, 1320.905 140.926, 1323.250 140.968 C 1324.513 140.991, 1325 141.819, 1325 143.941 C 1325 147.657, 1326.338 148.519, 1328.600 146.259 C 1330.748 144.113, 1337.769 133.309, 1341.441 126.500 C 1342.924 123.750, 1345.323 119.475, 1346.773 117 C 1348.223 114.525, 1352.580 106.692, 1356.455 99.593 C 1360.330 92.494, 1364.175 86.343, 1365 85.925 C 1365.825 85.507, 1369.875 84.641, 1374 84 C 1378.125 83.360, 1385.325 82.213, 1390 81.452 C 1394.675 80.690, 1404.350 79.135, 1411.500 77.995 C 1418.650 76.856, 1428.100 75.265, 1432.500 74.459 C 1454.972 70.345, 1475.779 67.900, 1513 64.999 C 1519.325 64.506, 1529.225 63.640, 1535 63.076 C 1569.362 59.715, 1581.142 58.845, 1618.622 56.896 C 1651.948 55.163, 1695.652 57.068, 1712.076 60.969 C 1724.484 63.916, 1728.740 66.984, 1726.158 71.119 C 1724.429 73.888, 1724.749 75.795, 1727.159 77.085 C 1730.332 78.783, 1738.219 77.518, 1742.907 74.559 C 1748.798 70.840, 1750.349 67.982, 1749.766 61.920 C 1749.368 57.777, 1748.609 56.184, 1745.529 53.029 C 1738.869 46.209, 1727.786 43.659, 1698 42.096 C 1676.094 40.946, 1645.285 40.266, 1633 40.663 M 2354.060 84.750 C 2347.214 91.754, 2320.618 119.817, 2296.487 145.500 C 2286.668 155.950, 2273.843 169.450, 2267.986 175.500 C 2262.129 181.550, 2254.021 190.100, 2249.968 194.500 C 2233.076 212.836, 2198.510 248.612, 2182.817 264 C 2172.982 273.645, 2165.993 281.272, 2165.996 282.357 C 2165.998 283.577, 2166.503 284.021, 2167.466 283.651 C 2168.272 283.342, 2173.785 282.597, 2179.716 281.996 C 2185.647 281.396, 2196.125 280.267, 2203 279.489 C 2217.473 277.852, 2232.207 276.458, 2250.325 275.013 C 2262.615 274.033, 2267 272.984, 2267 271.025 C 2267 269.735, 2278.721 245.069, 2287.446 228 C 2291.522 220.025, 2297.518 207.650, 2300.771 200.500 C 2304.023 193.350, 2310.513 180.975, 2315.193 173 C 2319.873 165.025, 2326.054 153.887, 2328.930 148.250 C 2333.796 138.708, 2336 135.962, 2336 139.441 C 2336 140.234, 2336.453 141.162, 2337.008 141.505 C 2338.936 142.697, 2341.311 138.818, 2341.806 133.669 L 2342.302 128.504 2340.651 129.875 L 2339 131.245 2339.001 129.372 C 2339.001 126.603, 2342.134 118.980, 2348.811 105.500 C 2352.080 98.900, 2355.094 92.375, 2355.509 91 C 2355.923 89.625, 2357.040 87.375, 2357.989 86 C 2364.032 77.252, 2362.015 76.611, 2354.060 84.750 M 1416 161.748 L 1409.500 165.551 1401.767 179.525 C 1392.144 196.918, 1389.660 203.192, 1390.298 208.500 C 1390.563 210.700, 1391.064 213.188, 1391.412 214.030 C 1392.117 215.732, 1382.901 231.934, 1379.267 235.382 C 1378.039 236.547, 1377.027 238.330, 1377.017 239.344 C 1377.008 240.358, 1376.087 241.426, 1374.972 241.718 C 1373.578 242.082, 1373.119 242.801, 1373.506 244.019 C 1373.815 244.992, 1373.378 246.480, 1372.534 247.323 C 1371.690 248.167, 1371 249.339, 1371 249.929 C 1371 250.518, 1370.325 251, 1369.500 251 C 1368.675 251, 1368 251.717, 1368 252.594 C 1368 253.470, 1367.077 254.429, 1365.949 254.724 C 1364.256 255.166, 1364.012 255.778, 1364.550 258.229 L 1365.203 261.199 1363.156 260.550 L 1361.110 259.900 1361.605 263.200 C 1362.007 265.874, 1361.127 268.160, 1356.971 275.250 C 1354.150 280.063, 1351.427 284, 1350.921 284 C 1350.414 284, 1350 284.914, 1350 286.031 C 1350 287.149, 1349.325 288.322, 1348.500 288.638 C 1347.675 288.955, 1347 290.096, 1347 291.174 C 1347 292.680, 1346.536 292.987, 1345 292.500 C 1343.581 292.050, 1343 292.320, 1343 293.433 C 1343 294.295, 1342.438 295.029, 1341.750 295.065 C 1339.234 295.197, 1330.831 306.637, 1324.964 317.920 C 1315.756 335.626, 1313.490 339.480, 1304.151 353.322 C 1294.206 368.063, 1291.563 372.192, 1279.546 391.761 C 1272.546 403.159, 1270.916 406.527, 1271.421 408.542 C 1272.150 411.447, 1277.373 414.991, 1280.934 414.996 C 1285.707 415.004, 1291.816 411.002, 1296.892 404.543 C 1312.504 384.676, 1343.318 355.749, 1361.889 343.525 L 1369.279 338.661 1370.492 340.320 C 1371.444 341.622, 1371.426 343.535, 1370.405 349.239 C 1368.526 359.735, 1368.707 366.142, 1371.060 372.430 C 1374.927 382.766, 1386.852 389.929, 1398.199 388.731 C 1409.693 387.517, 1429.495 379.126, 1446.538 368.248 C 1447.617 367.559, 1449.400 366.574, 1450.500 366.060 C 1451.600 365.545, 1454.525 363.748, 1457 362.066 C 1461.687 358.882, 1464 358.230, 1464 360.095 C 1464 360.697, 1463.049 364.322, 1461.886 368.151 L 1459.771 375.112 1461.438 379.478 C 1464.112 386.480, 1468.493 389.127, 1478.430 389.747 C 1485.169 390.168, 1488.053 389.848, 1494.095 388.010 C 1498.168 386.771, 1501.928 385.362, 1502.450 384.879 C 1502.973 384.395, 1504.029 384, 1504.799 384 C 1505.568 384, 1507.616 383.358, 1509.349 382.572 C 1511.082 381.787, 1514.750 380.167, 1517.500 378.972 C 1525.757 375.384, 1535.281 370.721, 1539 368.446 C 1546.139 364.077, 1556.096 359, 1557.525 359 C 1559.407 359, 1559.396 361.116, 1557.492 365.673 C 1556.663 367.658, 1555.705 371.659, 1555.363 374.565 C 1554.526 381.693, 1557.102 385.925, 1564.479 389.533 L 1569.854 392.163 1577.177 391.713 C 1585.768 391.185, 1593.671 389.213, 1601.425 385.663 C 1604.491 384.259, 1607 383.336, 1607 383.612 C 1607 383.888, 1608.237 383.457, 1609.750 382.655 C 1611.263 381.853, 1615.875 379.502, 1620 377.431 C 1624.125 375.359, 1628.175 373.320, 1629 372.899 C 1629.825 372.478, 1635.515 369.178, 1641.644 365.566 C 1647.773 361.955, 1653.050 359, 1653.370 359 C 1653.691 359, 1656.972 356.975, 1660.662 354.500 C 1666.654 350.482, 1670 349.047, 1670 350.497 C 1670 350.771, 1668.445 352.716, 1666.544 354.820 C 1664.441 357.147, 1662.689 360.425, 1662.069 363.191 C 1660.394 370.667, 1659.180 373.003, 1654.712 377.353 C 1649.063 382.854, 1645.618 389.418, 1647.014 392.026 C 1649.790 397.213, 1657.797 397.482, 1664.106 392.600 C 1666.523 390.730, 1669.216 388.367, 1670.091 387.350 C 1671.864 385.287, 1676.458 381.263, 1683.047 376 C 1685.457 374.075, 1689.019 371.137, 1690.964 369.472 C 1700.087 361.659, 1712.223 353, 1714.050 353 C 1714.573 353, 1715 352.612, 1715 352.137 C 1715 350.763, 1728.096 344.692, 1729.012 345.642 C 1729.467 346.114, 1729.988 351.525, 1730.170 357.668 L 1730.500 368.836 1733.526 373.137 C 1742.782 386.295, 1759.820 388.407, 1781.500 379.085 C 1802.001 370.269, 1823.365 356.531, 1822.790 352.534 C 1822.190 348.370, 1819.844 349.039, 1800 359.032 C 1794.775 361.663, 1786.588 365.433, 1781.807 367.408 L 1773.113 371 1764.591 371 L 1756.070 371 1752.721 368.060 C 1748.052 363.960, 1747.169 360.156, 1747.763 346.699 L 1748.271 335.180 1745.681 332.590 C 1741.501 328.410, 1734.176 329.509, 1719.476 336.520 C 1711.565 340.294, 1693.410 351.633, 1688.921 355.603 C 1686.950 357.347, 1685 357.408, 1685 355.725 C 1685 355.023, 1687.007 351.311, 1689.460 347.475 C 1707.469 319.311, 1709.288 315.889, 1708.025 312.566 C 1706.585 308.778, 1703.079 308.431, 1696.707 311.445 C 1690.714 314.281, 1689.331 315.920, 1686.542 323.500 C 1683.640 331.387, 1681.553 333.566, 1671.204 339.517 C 1665.867 342.587, 1660.825 345.529, 1660 346.055 C 1659.175 346.582, 1657.825 347.321, 1657 347.698 C 1656.175 348.075, 1650.550 351.355, 1644.500 354.987 C 1632.501 362.190, 1600.511 376.263, 1592.468 377.876 C 1583.065 379.762, 1574 375.883, 1574 369.974 C 1574 368.501, 1575.029 365.767, 1576.286 363.898 L 1578.572 360.500 1584.536 359.860 C 1591.968 359.062, 1596.736 356.695, 1606.434 348.988 C 1617.925 339.857, 1628 325.115, 1628 317.433 C 1628 312.666, 1622.680 307, 1618.205 307 C 1613.571 307, 1601.908 310.941, 1597.882 313.867 C 1590.010 319.588, 1574.338 334.249, 1571.500 338.546 C 1567.527 344.562, 1558.475 350.600, 1544 356.890 C 1540.975 358.204, 1536.250 360.272, 1533.500 361.486 C 1530.750 362.699, 1522.875 366.047, 1516 368.926 C 1509.125 371.804, 1502.109 374.757, 1500.408 375.488 C 1496.512 377.163, 1486.782 378.413, 1483.690 377.637 C 1475.924 375.688, 1479.286 363.381, 1493.265 342.580 C 1496.621 337.586, 1500.811 331.335, 1502.574 328.689 C 1506.165 323.302, 1506.092 320.761, 1502.272 318.259 L 1499.812 316.647 1496.639 318.355 C 1490.934 321.427, 1483.747 328.317, 1477.852 336.365 C 1470.569 346.308, 1471.772 345.494, 1446.500 357.590 C 1423.923 368.396, 1408.572 374, 1401.544 374 C 1398.581 374, 1392.288 369.458, 1390.525 366.047 C 1388.730 362.576, 1388.443 352.556, 1389.927 345.114 C 1390.517 342.151, 1391 337.054, 1391 333.787 L 1391 327.846 1387.943 324.789 L 1384.886 321.732 1379.621 322.275 C 1376.725 322.574, 1371.301 324.204, 1367.568 325.897 C 1355.723 331.267, 1332.976 347.807, 1322.890 358.382 C 1315.630 365.994, 1314.438 364.288, 1320.345 354.739 C 1325.628 346.199, 1346.457 309.903, 1350.610 302 C 1352.199 298.975, 1353.748 296.275, 1354.051 296 C 1354.354 295.725, 1356.093 292.800, 1357.915 289.500 C 1359.737 286.200, 1363.584 279.450, 1366.463 274.500 C 1379.169 252.656, 1386.933 239.141, 1389.440 234.500 C 1390.925 231.750, 1392.896 228.295, 1393.820 226.822 C 1394.744 225.348, 1397.426 221.073, 1399.780 217.322 C 1402.133 213.570, 1405.460 208.250, 1407.173 205.500 C 1408.885 202.750, 1414.917 193.499, 1420.577 184.942 C 1426.237 176.385, 1431.426 168.159, 1432.108 166.663 L 1433.347 163.942 1431.324 161.221 C 1428.191 157.006, 1423.851 157.156, 1416 161.748 M 1286.948 185.677 C 1285.051 187.799, 1279.900 195.741, 1275.500 203.326 C 1271.100 210.912, 1261.537 227.242, 1254.250 239.615 C 1246.963 251.988, 1241 262.320, 1241 262.575 C 1241 262.831, 1239.951 264.718, 1238.669 266.770 C 1237.387 268.821, 1234.618 273.650, 1232.514 277.500 C 1230.410 281.350, 1225.086 291.025, 1220.682 299 C 1207.591 322.706, 1204.200 328.992, 1198.863 339.446 C 1193.490 349.969, 1185.192 364.776, 1175.108 381.831 C 1171.749 387.514, 1169 392.273, 1169 392.406 C 1169 392.540, 1166.300 397.495, 1163 403.418 C 1159.700 409.340, 1157 414.378, 1157 414.613 C 1157 414.848, 1155.797 416.943, 1154.326 419.270 C 1151.636 423.525, 1139.351 447.761, 1134.694 458 C 1133.318 461.025, 1130.375 467.410, 1128.153 472.188 C 1123.830 481.486, 1122.439 486.657, 1123.424 489.761 C 1124.088 491.852, 1127.928 494, 1131.003 494 C 1134.987 494, 1150.784 483.140, 1153.103 478.807 C 1153.929 477.264, 1153.877 476.139, 1152.894 474.301 L 1151.583 471.852 1153.416 466.676 C 1155.592 460.531, 1157.296 456.984, 1166.951 438.500 C 1180.540 412.484, 1185.894 402.630, 1192.667 391.167 C 1195.050 387.134, 1197 383.705, 1197 383.546 C 1197 383.387, 1199.518 378.811, 1202.595 373.378 C 1205.672 367.945, 1210.469 359.225, 1213.255 354 C 1216.041 348.775, 1221.926 338.434, 1226.334 331.020 C 1230.741 323.606, 1235.911 314.606, 1237.822 311.020 C 1239.733 307.434, 1242.804 301.888, 1244.648 298.696 C 1246.492 295.504, 1248 292.740, 1248 292.553 C 1248 292.366, 1251.227 286.653, 1255.171 279.857 C 1259.115 273.061, 1264.458 263.643, 1267.045 258.929 C 1269.632 254.216, 1272.930 248.487, 1274.374 246.199 C 1275.818 243.912, 1277 241.805, 1277 241.519 C 1277 241.232, 1280.531 235.036, 1284.848 227.749 C 1304.326 194.865, 1311.753 176.085, 1301.535 185.555 L 1298.779 188.110 1297.061 186.555 C 1296.116 185.700, 1294.753 185, 1294.032 185 C 1293.310 185, 1292.197 184.285, 1291.558 183.410 L 1290.395 181.820 1286.948 185.677 M 2231.500 202.724 C 2229.850 204.720, 2227.713 207.174, 2226.750 208.177 C 2225.787 209.180, 2225 210.305, 2225 210.677 C 2225 211.049, 2227.472 208.911, 2230.494 205.927 C 2233.516 202.942, 2235.991 200.162, 2235.994 199.750 C 2236.006 198.161, 2234.382 199.236, 2231.500 202.724 M 672.033 260.601 C 665.977 262.228, 665.927 262.252, 650.799 270.798 C 644.913 274.122, 635.881 278.691, 630.728 280.951 C 619.567 285.846, 617 287.520, 617 289.902 C 617 292.243, 620.107 295, 622.746 295 C 625.525 295, 643.982 286.835, 659.142 278.900 C 661.145 277.852, 664.070 276.323, 665.642 275.503 C 670.044 273.207, 671.405 273.644, 674.865 278.461 C 681.399 287.560, 689.826 292.779, 699.432 293.676 C 704.793 294.176, 706.553 293.911, 710.484 292.008 C 717.890 288.423, 718.754 283, 711.920 283 C 703.653 283, 691.462 274.708, 687.522 266.405 C 683.925 258.824, 681.719 257.998, 672.033 260.601 M 1630.500 261.188 C 1628.850 261.725, 1625.025 263.483, 1622 265.095 C 1611.661 270.607, 1600.502 275.816, 1588 280.967 C 1581.125 283.800, 1574.825 286.474, 1574 286.911 C 1571.701 288.127, 1571.681 291.401, 1573.960 293.464 L 1576.008 295.317 1580.254 294.067 C 1590.317 291.104, 1614.686 279.965, 1619.653 276.059 C 1621.092 274.926, 1622.997 274, 1623.885 274.001 C 1624.773 274.001, 1628.017 276.813, 1631.093 280.251 C 1637.225 287.103, 1642.280 290.088, 1651.944 292.564 C 1658.700 294.295, 1662.113 294.016, 1668.216 291.234 C 1674.694 288.280, 1674.633 282.445, 1668.132 283.269 C 1663.874 283.809, 1654.165 280.151, 1649.508 276.252 C 1647.854 274.867, 1644.792 271.206, 1642.704 268.117 C 1637.100 259.823, 1636.226 259.327, 1630.500 261.188 M 2495.223 307.062 C 2488.448 308.397, 2481.284 312.876, 2472.229 321.438 C 2463.002 330.162, 2456.667 338.463, 2452.578 347.191 C 2449.605 353.535, 2445.266 356.996, 2424.500 369.591 C 2418.450 373.261, 2410.912 378.259, 2407.750 380.698 C 2404.588 383.137, 2402 384.803, 2402 384.399 C 2402 383.996, 2404.637 375.754, 2407.861 366.083 C 2411.084 356.412, 2414.955 344.675, 2416.462 340 C 2417.970 335.325, 2420.549 329.122, 2422.194 326.216 L 2425.186 320.932 2423.570 318.466 C 2421.511 315.324, 2417.967 315.298, 2412 318.382 L 2407.500 320.708 2403.610 317.230 L 2399.719 313.751 2392.970 314.234 C 2387.650 314.615, 2384.428 315.610, 2377.754 318.931 C 2368.271 323.651, 2365.156 326.051, 2349.088 341.022 C 2335.937 353.275, 2330.180 360.504, 2324.862 371.447 C 2320.375 380.680, 2320.151 382.901, 2323.331 386.598 C 2326.334 390.089, 2335.015 391.137, 2340.067 388.617 C 2341.849 387.727, 2343.932 387, 2344.696 387 C 2346.434 387, 2358.010 380.792, 2364 376.647 C 2369.502 372.841, 2379.862 364.212, 2386.227 358.134 C 2388.827 355.652, 2391.235 353.901, 2391.578 354.245 C 2391.921 354.588, 2391.303 356.586, 2390.204 358.684 C 2389.105 360.783, 2386.612 366.775, 2384.665 372 C 2379.768 385.138, 2376.363 393.592, 2373.516 399.676 C 2371.039 404.970, 2367.333 408.129, 2345.764 423.333 C 2342.059 425.945, 2336.884 429.873, 2334.264 432.063 C 2331.644 434.253, 2329.050 436.376, 2328.500 436.780 C 2326.671 438.124, 2313.548 448.469, 2311.096 450.500 C 2290.299 467.728, 2257.850 499.079, 2249.703 509.815 C 2243.614 517.839, 2236.816 528.947, 2237.231 530.193 C 2237.424 530.771, 2241.613 526.812, 2246.541 521.394 C 2263.534 502.709, 2288.238 478.653, 2304.520 464.933 C 2316.589 454.764, 2340.117 436.360, 2347.510 431.306 C 2350.804 429.053, 2354.822 425.813, 2356.437 424.105 C 2358.958 421.440, 2362 419.990, 2362 421.452 C 2362 421.701, 2360.313 425.207, 2358.250 429.243 C 2356.188 433.279, 2354.017 437.688, 2353.426 439.041 C 2352.199 441.852, 2343.010 459.280, 2339.212 466 C 2312.357 513.512, 2287.907 546.092, 2255.361 577.731 C 2245.553 587.266, 2235.625 592.270, 2225.431 592.820 L 2218.361 593.200 2216.570 590.467 C 2214.727 587.654, 2214.728 587.591, 2216.651 570.750 C 2217.006 567.641, 2216.814 566, 2216.097 566 C 2214.857 566, 2211 569.599, 2211 570.756 C 2211 571.172, 2209.704 572.085, 2208.121 572.786 C 2201.911 575.535, 2198.707 591.554, 2202.983 598.472 C 2207.060 605.069, 2219.020 607.379, 2229.500 603.594 C 2240.064 599.779, 2255.094 591.204, 2262.021 585.042 C 2264.484 582.850, 2267.251 581.044, 2268.168 581.028 C 2271.153 580.978, 2273 579.823, 2273 578.008 C 2273 577.030, 2274.179 575.458, 2275.620 574.513 C 2279.952 571.675, 2301.708 550.127, 2309.961 540.500 C 2338.909 506.734, 2371.541 452.991, 2392.924 403.862 L 2397.119 394.225 2401.810 391.206 C 2408.058 387.186, 2415.578 381.817, 2439.665 364.181 C 2444.346 360.754, 2447.777 360.543, 2446.535 363.758 C 2444.765 368.338, 2444.054 375.486, 2445.013 379.049 C 2446.282 383.762, 2451.579 388.538, 2457.237 390.071 C 2464.612 392.070, 2476.862 390.156, 2488 385.264 C 2505.597 377.535, 2529.499 364.365, 2541.209 355.944 C 2547.826 351.185, 2554.788 349.355, 2550.692 353.451 C 2549.842 354.301, 2547.817 357.811, 2546.192 361.250 C 2544.567 364.690, 2540.259 372.415, 2536.618 378.418 C 2532.978 384.421, 2530 389.728, 2530 390.212 C 2530 390.695, 2531.105 392.195, 2532.455 393.545 C 2538.046 399.137, 2546.196 395.701, 2560 381.929 C 2577.287 364.683, 2602.910 345.096, 2608.712 344.693 L 2611.500 344.500 2611.145 355.129 C 2610.579 372.100, 2613.546 376.028, 2628.998 378.767 L 2637.928 380.350 2648.191 375.968 C 2658.536 371.551, 2660.669 370.352, 2673.392 361.808 C 2677.235 359.228, 2680.708 357.319, 2681.109 357.567 C 2681.510 357.815, 2681.154 359.389, 2680.318 361.064 C 2676.739 368.238, 2681.512 375.834, 2691.255 378.471 L 2697.523 380.168 2705.722 378.612 C 2718.253 376.235, 2738.950 365.719, 2756 353.066 C 2760.125 350.005, 2764.314 347.167, 2765.310 346.760 L 2767.120 346.020 2766.328 350.760 C 2764.440 362.070, 2766.496 366.574, 2774.605 368.891 C 2780.672 370.625, 2790.662 369.223, 2796.815 365.774 C 2809.658 358.575, 2825.816 347.065, 2831.437 341.111 C 2833.052 339.400, 2834.965 338, 2835.687 338 C 2837.467 338, 2837.368 338.455, 2834.651 342.770 C 2833.359 344.821, 2829.148 352.800, 2825.293 360.500 C 2821.438 368.200, 2817.324 376.075, 2816.151 378 C 2814.977 379.925, 2813.703 382.175, 2813.319 383 C 2812.175 385.460, 2802.802 400.747, 2795.408 412.213 C 2791.609 418.105, 2786.293 426.430, 2783.595 430.713 C 2780.897 434.996, 2777.766 439.528, 2776.638 440.785 C 2774.446 443.226, 2764.190 446.645, 2731 456.001 C 2712.339 461.262, 2687.591 469.176, 2665.500 476.948 C 2619.973 492.965, 2580.354 509.530, 2543 528.168 C 2493.454 552.888, 2449.112 581.775, 2427.448 603.446 C 2411.369 619.529, 2402.334 635.225, 2404.404 643.475 C 2405.301 647.048, 2410.656 652.784, 2415.312 655.159 C 2424.425 659.808, 2466.169 658.312, 2490 652.482 C 2493.025 651.741, 2498.650 650.416, 2502.500 649.537 C 2511.473 647.487, 2518.736 645.386, 2527.500 642.304 C 2531.350 640.950, 2535.850 639.459, 2537.500 638.990 C 2540.947 638.010, 2548.562 635.346, 2551.500 634.093 C 2552.600 633.623, 2555.525 632.469, 2558 631.528 C 2560.475 630.586, 2563.969 629.194, 2565.765 628.435 C 2567.560 627.676, 2570.485 626.449, 2572.265 625.708 C 2581.785 621.748, 2633.712 594.982, 2641 590.280 C 2678.753 565.916, 2696.491 552.474, 2724.115 527.290 C 2732.704 519.460, 2744.018 508.552, 2749.257 503.050 C 2759.873 491.902, 2780.384 467.761, 2789.672 455.481 C 2797.179 445.557, 2797.571 445.234, 2803.599 444.010 C 2806.295 443.463, 2811.650 442.111, 2815.500 441.006 C 2819.350 439.901, 2829.025 437.416, 2837 435.484 C 2844.975 433.551, 2853.300 431.474, 2855.500 430.867 C 2857.700 430.261, 2861.750 429.398, 2864.500 428.950 C 2867.250 428.502, 2871.300 427.676, 2873.500 427.114 C 2875.700 426.551, 2881.100 425.368, 2885.500 424.484 C 2889.900 423.600, 2895.525 422.408, 2898 421.836 C 2900.475 421.264, 2905.425 420.121, 2909 419.296 C 2912.575 418.471, 2917.885 417.428, 2920.801 416.977 C 2923.717 416.527, 2928.217 415.686, 2930.801 415.108 C 2944.508 412.043, 2972.396 406.888, 2985.458 405.005 C 2989.285 404.454, 2993.240 403.741, 2994.247 403.422 C 2996.147 402.819, 3010.361 400.547, 3022.500 398.907 C 3026.350 398.387, 3030.175 397.708, 3031 397.398 C 3032.503 396.834, 3048.824 394.736, 3065.283 392.991 C 3070.113 392.479, 3075.738 391.622, 3077.783 391.088 C 3079.827 390.553, 3084.875 389.827, 3089 389.474 C 3093.125 389.121, 3099.650 388.241, 3103.500 387.518 C 3107.350 386.794, 3113.243 386.145, 3116.596 386.075 C 3119.949 386.006, 3124.144 385.532, 3125.918 385.023 C 3127.692 384.515, 3134.174 383.792, 3140.322 383.417 C 3146.470 383.042, 3152.175 382.400, 3153 381.989 C 3153.825 381.579, 3160.350 380.953, 3167.500 380.600 C 3174.650 380.247, 3184.550 379.520, 3189.500 378.984 C 3211.451 376.611, 3243.624 375.501, 3290 375.519 C 3339.745 375.538, 3347.526 375.938, 3376.500 379.962 C 3403.041 383.648, 3420.507 389.609, 3428.312 397.644 C 3432.503 401.959, 3433.701 404.699, 3432.099 406.301 C 3430.098 408.302, 3430.955 410.864, 3434.542 413.600 C 3444.427 421.140, 3460.687 414.868, 3462.652 402.758 C 3463.384 398.246, 3460.796 392.709, 3456.382 389.342 C 3452.873 386.666, 3442.098 380, 3441.280 380 C 3441.017 380, 3439.384 379.371, 3437.651 378.601 C 3434.426 377.170, 3428.364 375.171, 3419.500 372.618 C 3415.004 371.322, 3403.503 369.123, 3385 366.022 C 3378.612 364.951, 3335.645 362.860, 3317 362.713 C 3287.326 362.479, 3202.497 366.562, 3185.401 369.048 C 3181.497 369.615, 3172.947 370.509, 3166.401 371.033 C 3159.856 371.558, 3151.350 372.427, 3147.500 372.964 C 3137.366 374.378, 3124.746 375.939, 3115 376.984 C 3110.325 377.485, 3102.504 378.594, 3097.619 379.448 C 3092.734 380.301, 3087.019 381, 3084.918 381 C 3082.817 381, 3078.939 381.449, 3076.299 381.997 C 3073.660 382.546, 3067.900 383.441, 3063.500 383.987 C 3055.750 384.948, 3052.321 385.546, 3037.500 388.518 C 3029.633 390.096, 3020.634 391.625, 3011 393.021 C 3007.425 393.540, 3002.475 394.406, 3000 394.947 C 2997.525 395.488, 2992.575 396.365, 2989 396.896 C 2985.425 397.427, 2977.100 398.826, 2970.500 400.004 C 2963.900 401.182, 2956.250 402.521, 2953.500 402.980 C 2939.299 405.347, 2934.951 406.137, 2929 407.432 C 2925.425 408.210, 2918.900 409.546, 2914.500 410.401 C 2901.355 412.957, 2862.766 421.028, 2859 422.009 C 2857.075 422.511, 2846.500 424.995, 2835.500 427.530 C 2824.500 430.065, 2813.587 432.821, 2811.249 433.653 C 2808.911 434.485, 2806.508 435.003, 2805.908 434.803 C 2805.307 434.602, 2807.011 431.089, 2809.707 426.970 C 2824.722 404.027, 2834.184 387.579, 2844.501 366.481 C 2857.353 340.201, 2861.259 330.970, 2865.337 317.238 L 2866.864 312.096 2864.859 309.548 C 2863.748 308.136, 2861.829 307, 2860.553 307 C 2857.060 307, 2849.542 311.614, 2844.769 316.687 C 2830.507 331.845, 2796.638 356, 2789.646 356 C 2783.953 356, 2783.654 347.981, 2789.049 340 C 2790.722 337.525, 2792.718 334.048, 2793.485 332.272 C 2794.252 330.497, 2795.370 328.472, 2795.970 327.772 C 2801.253 321.607, 2806.984 313.120, 2806.991 311.450 C 2807.013 306.468, 2801.631 305.633, 2794.097 309.451 C 2788.594 312.239, 2784.971 316.150, 2781.446 323.106 C 2777.840 330.223, 2773.836 334.282, 2765.743 339.026 C 2761.759 341.361, 2756.157 345.010, 2753.293 347.136 C 2750.429 349.261, 2747.764 351, 2747.372 351 C 2746.979 351, 2745.947 351.605, 2745.079 352.345 C 2742.507 354.536, 2720.946 363.700, 2714.328 365.415 C 2701.850 368.648, 2698.653 367.247, 2698.626 358.532 C 2698.613 354.169, 2699.014 352.572, 2700.304 351.850 C 2701.237 351.328, 2702 350.478, 2702 349.961 C 2702 348.665, 2710.733 337.282, 2715.032 332.974 C 2719.518 328.480, 2727.879 322.807, 2728.998 323.499 C 2729.468 323.789, 2729.598 326.496, 2729.286 329.514 L 2728.720 335 2733.395 335 C 2741.759 335, 2745.904 329.949, 2746.554 318.963 C 2746.934 312.534, 2746.619 311.852, 2742.222 309.599 C 2733.534 305.148, 2720.969 312.613, 2692.531 339.121 C 2685.746 345.446, 2673.618 354, 2671.437 354 C 2670.647 354, 2670 354.351, 2670 354.781 C 2670 355.210, 2668.762 356.088, 2667.250 356.731 C 2665.738 357.374, 2661.746 359.432, 2658.380 361.304 C 2651.195 365.300, 2640.924 368.301, 2636.037 367.832 C 2633.303 367.569, 2632.017 366.668, 2629.886 363.521 L 2627.192 359.541 2627.241 346.977 C 2627.293 333.805, 2626.519 330.617, 2622.995 329.498 C 2620.790 328.799, 2612.213 330.957, 2604.655 334.114 C 2597.234 337.213, 2576.957 349.706, 2572.768 353.759 C 2565.130 361.150, 2567.162 355.639, 2578.025 339.500 C 2581.728 334, 2585.824 327.529, 2587.128 325.119 C 2588.433 322.709, 2590.081 319.685, 2590.791 318.398 C 2591.866 316.449, 2591.830 315.571, 2590.576 313.146 C 2588.409 308.956, 2584.764 308.360, 2579.659 311.363 C 2573.847 314.782, 2571.466 317.638, 2569.069 324.066 C 2566.550 330.823, 2564.124 333.185, 2552.500 340.200 C 2524.546 357.071, 2515.439 362.008, 2500 368.663 C 2485.668 374.840, 2478.627 377, 2472.822 377 C 2468.789 377, 2467.464 376.524, 2465.452 374.354 C 2462.587 371.262, 2462.224 366.401, 2464.526 361.950 C 2465.803 359.480, 2466.661 359, 2469.797 359 C 2474.382 359, 2485.410 352.744, 2495.268 344.551 C 2503.910 337.369, 2512.687 324.563, 2513.617 317.779 L 2514.263 313.063 2510.732 309.532 C 2506.918 305.718, 2504.221 305.289, 2495.223 307.062 M 1604.775 323.052 C 1601.581 324.939, 1587 342.219, 1587 344.119 C 1587 345.153, 1587.388 346, 1587.862 346 C 1590.071 346, 1603.859 337.585, 1606.805 334.439 L 1610.111 330.909 1609.805 326.713 C 1609.482 322.272, 1607.966 321.168, 1604.775 323.052 M 643.613 329.706 C 637.391 338.286, 637.021 341.724, 642.062 344.135 C 644.021 345.072, 647.200 346.135, 649.126 346.496 L 652.627 347.153 654.244 343.326 C 655.133 341.222, 656.126 337.183, 656.451 334.352 L 657.042 329.203 654.432 326.102 C 652.997 324.396, 651.069 323, 650.149 323 C 649.229 323, 646.288 326.018, 643.613 329.706 M 2484.469 328.118 C 2478.672 333.601, 2473 341.622, 2473 344.338 C 2473 346.579, 2473.681 346.442, 2477.363 343.456 C 2479.088 342.056, 2482.512 339.456, 2484.971 337.676 C 2489.801 334.183, 2494.913 327.571, 2494.967 324.750 C 2495.035 321.181, 2490.144 322.750, 2484.469 328.118 M 2382.500 327.840 C 2370.112 334.966, 2362.003 341.774, 2353.802 351.933 C 2346.906 360.474, 2341.365 370.904, 2342.354 373.481 C 2343.248 375.809, 2344.201 375.353, 2358.390 365.815 C 2372.037 356.642, 2373.768 355.241, 2386.892 342.744 L 2396.284 333.801 2391.892 329.902 C 2386.946 325.511, 2386.660 325.448, 2382.500 327.840 M 890.766 332.297 C 883.945 336.107, 872.556 345.476, 866.336 352.394 C 863.878 355.128, 860.102 360.545, 857.946 364.432 C 852.278 374.652, 852.888 378.823, 859.455 374.745 C 861.130 373.705, 866.248 370.634, 870.828 367.920 C 885.433 359.268, 909 339.217, 909 335.444 C 909 334.798, 908.067 333.084, 906.927 331.635 C 903.963 327.866, 898.283 328.098, 890.766 332.297 M 616.931 359.750 C 610.921 369.201, 609.337 372.406, 607.894 378.035 C 606.411 383.821, 607.795 387.660, 611.720 388.644 C 615.722 389.649, 631.210 378.413, 637.068 370.256 C 638.803 367.839, 641.310 364.690, 642.638 363.256 C 645.727 359.923, 644.485 359.036, 636.700 359.015 C 630.861 359, 625.238 356.988, 623.700 354.365 C 622.327 352.022, 621.352 352.797, 616.931 359.750 M 853 453.063 C 850.525 454.087, 844 456.709, 838.500 458.888 C 817.953 467.030, 779.421 485.413, 765.206 493.856 C 762.294 495.585, 759.712 497, 759.468 497 C 759.224 497, 753.957 499.994, 747.762 503.654 C 718.878 520.718, 681.023 547.631, 657.500 567.823 C 642.309 580.864, 618.653 603.184, 611.741 611 C 608.579 614.575, 604.514 619.108, 602.708 621.074 C 598.280 625.893, 580.514 649.756, 574.629 658.788 C 570.505 665.118, 567.738 670.533, 561.412 684.651 C 560.635 686.384, 560 688.551, 560 689.467 C 560 690.382, 559.567 691.940, 559.039 692.928 C 556.655 697.381, 556.043 710.928, 557.916 717.763 C 563.393 737.750, 594.430 738.685, 632 719.995 C 641.946 715.047, 661.660 702.969, 668.500 697.633 C 691.746 679.498, 725.309 647.233, 746.135 623 C 763.564 602.719, 785.950 573.460, 797.778 555.500 C 803.573 546.700, 810.418 536.350, 812.988 532.500 C 815.558 528.650, 820.969 520.100, 825.012 513.500 C 829.055 506.900, 836.381 495.020, 841.291 487.099 C 846.200 479.179, 851.887 469.247, 853.927 465.028 C 855.968 460.808, 858.394 456.276, 859.319 454.956 C 860.243 453.635, 861 452.205, 861 451.777 C 861 450.543, 857.871 451.046, 853 453.063 M 2760 455.079 C 2758.625 455.556, 2743.325 460.055, 2726 465.079 C 2682.290 477.752, 2677.850 479.221, 2631.370 496.380 C 2596.723 509.172, 2533.024 538.804, 2513.270 551.320 C 2510.943 552.794, 2508.758 554, 2508.414 554 C 2507.401 554, 2486.362 566.791, 2475.129 574.236 C 2450.372 590.645, 2429.709 609.039, 2421.075 622.353 C 2415.547 630.878, 2414.472 637.814, 2417.989 642.269 C 2427.829 654.734, 2465.292 653.607, 2512 639.441 C 2515.025 638.524, 2519.350 637.257, 2521.610 636.625 C 2523.871 635.993, 2526.346 634.980, 2527.110 634.372 C 2527.875 633.765, 2529.625 633.029, 2531 632.736 C 2534.187 632.056, 2540.055 629.991, 2542 628.864 C 2542.825 628.386, 2544.400 627.599, 2545.500 627.114 C 2548.246 625.905, 2570.841 615.081, 2586 607.713 C 2592.875 604.371, 2604.800 597.516, 2612.500 592.479 C 2620.200 587.442, 2631.822 579.852, 2638.326 575.611 C 2655.053 564.707, 2662.624 558.948, 2682.777 541.803 C 2708.001 520.344, 2725.855 502.627, 2746.740 478.328 C 2756.749 466.684, 2765.402 456.870, 2765.969 456.519 C 2769.411 454.392, 2765.032 453.335, 2760 455.079 M 1171.452 742.266 C 1171.184 742.962, 1171.086 755.449, 1171.233 770.016 L 1171.500 796.500 1174.750 796.813 C 1176.537 796.986, 1178.007 796.761, 1178.015 796.313 C 1178.024 795.866, 1178.408 794.904, 1178.870 794.176 C 1179.542 793.117, 1180.387 793.266, 1183.105 794.923 C 1185.405 796.325, 1188.206 796.994, 1191.790 796.996 C 1203.304 797.004, 1212 788.405, 1212 777.010 C 1212 769.244, 1208.429 763.400, 1200.671 758.466 C 1196.504 755.815, 1187.197 756.012, 1183.234 758.833 C 1181.561 760.025, 1179.923 761, 1179.596 761 C 1179.268 761, 1179 757.212, 1179 752.582 C 1179 747.952, 1178.727 743.452, 1178.393 742.582 C 1177.662 740.676, 1172.158 740.426, 1171.452 742.266 M 1647.452 742.266 C 1647.184 742.962, 1647.086 755.449, 1647.233 770.016 L 1647.500 796.500 1650.500 796.500 L 1653.500 796.500 1654.301 783 L 1655.103 769.500 1658.067 766.750 C 1664.071 761.180, 1674.790 764.293, 1675.127 771.705 C 1675.197 773.242, 1675.535 779.445, 1675.877 785.490 L 1676.500 796.480 1678.298 796.822 C 1682.356 797.596, 1683 795.466, 1683 781.264 L 1683 767.772 1680.932 764.136 C 1677.659 758.380, 1674.574 756.652, 1667.429 756.571 C 1662.837 756.518, 1660.705 756.958, 1659.276 758.250 C 1655.668 761.516, 1655 760.493, 1655 751.700 C 1655 746.578, 1654.541 742.941, 1653.800 742.200 C 1652.218 740.618, 1648.067 740.661, 1647.452 742.266 M 1352.500 743.473 C 1351.950 743.704, 1349.676 744.360, 1347.447 744.932 C 1342.007 746.327, 1335.491 752.097, 1332.344 758.307 C 1328.552 765.790, 1328.615 775.685, 1332.500 782.822 C 1339.430 795.555, 1355.583 800.863, 1368.368 794.609 C 1374.983 791.372, 1377.402 788.840, 1376.523 786.072 C 1375.827 783.879, 1371.646 783.146, 1370.491 785.014 C 1368.975 787.467, 1361.868 790, 1356.500 790 C 1346.137 790, 1338.745 783.711, 1337.377 773.731 C 1335.368 759.079, 1347.227 747.631, 1361.097 750.833 C 1363.922 751.485, 1367.565 753.139, 1369.193 754.509 C 1372.796 757.541, 1374.581 757.652, 1376.035 754.934 L 1377.141 752.869 1373.528 749.461 C 1371.541 747.587, 1368.200 745.592, 1366.104 745.028 C 1361.434 743.770, 1353.856 742.904, 1352.500 743.473 M 1585.406 744.385 C 1585.090 745.209, 1584.986 746.697, 1585.175 747.692 C 1585.463 749.204, 1586.827 749.582, 1593.510 750 L 1601.500 750.500 1601.500 772.500 C 1601.500 784.600, 1601.864 795.063, 1602.309 795.750 C 1603.416 797.461, 1607.485 797.325, 1608.977 795.527 C 1609.888 794.430, 1610.081 788.697, 1609.735 772.990 L 1609.271 751.925 1610.886 751.132 C 1611.774 750.695, 1614.750 750.459, 1617.500 750.607 C 1620.250 750.755, 1623.287 750.649, 1624.250 750.371 C 1626.277 749.785, 1626.675 745.147, 1624.750 744.548 C 1624.063 744.334, 1615.058 743.873, 1604.740 743.523 L 1585.981 742.887 1585.406 744.385 M 1866.343 745.641 C 1865.880 746.664, 1865.725 758.525, 1866 772 L 1866.500 796.500 1878 796.808 C 1886.778 797.043, 1890.894 796.699, 1895.389 795.357 C 1917.719 788.690, 1920.336 757.719, 1899.500 746.712 C 1896.116 744.924, 1893.319 744.536, 1881.343 744.190 L 1867.187 743.782 1866.343 745.641 M 1874.836 751.102 C 1873.906 751.676, 1873.669 762.390, 1873.990 789.315 C 1873.996 789.763, 1878.105 789.879, 1883.122 789.572 C 1889.964 789.155, 1893.265 788.451, 1896.333 786.758 C 1908.649 779.958, 1909.215 760.702, 1897.304 753.745 C 1893.981 751.805, 1876.942 749.800, 1874.836 751.102 M 1465.228 757.107 L 1462.957 757.952 1463.228 777.226 L 1463.500 796.500 1465.805 796.827 C 1470.331 797.468, 1471 795.678, 1471 782.912 L 1471 771.070 1474.042 767.605 C 1475.715 765.700, 1478.413 763.848, 1480.038 763.492 C 1483.764 762.673, 1489.706 764.581, 1491.008 767.014 C 1491.553 768.034, 1492 774.437, 1492 781.243 C 1492 794.857, 1492.837 797.440, 1497.056 796.845 L 1499.500 796.500 1499.500 781.896 C 1499.500 765.718, 1498.952 763.726, 1493.314 759.426 C 1488.684 755.894, 1479.656 755.685, 1474.998 759.002 C 1472.368 760.874, 1471.635 761.034, 1470.912 759.892 C 1470.427 759.126, 1470.024 758.211, 1470.015 757.857 C 1469.987 756.650, 1467.504 756.261, 1465.228 757.107 M 1536.655 757.409 C 1531.913 759.161, 1528.387 762.366, 1525.929 767.158 C 1519.778 779.152, 1524.895 791.293, 1537.873 795.501 C 1542.426 796.976, 1543.877 797.056, 1547.373 796.023 C 1549.643 795.352, 1552.298 794.093, 1553.274 793.225 C 1555.910 790.880, 1557.176 792.780, 1555.946 797.235 C 1554.349 803.016, 1550.995 805, 1542.817 805 L 1535.905 805 1533.443 802.344 L 1530.981 799.688 1528.491 800.822 C 1524.176 802.788, 1525.161 806.412, 1530.750 809.139 C 1537.786 812.572, 1548.051 812.869, 1553.992 809.812 C 1562.914 805.220, 1564.402 799.491, 1563.811 772 L 1563.500 757.500 1560.744 757.183 C 1558.947 756.976, 1557.779 757.411, 1557.387 758.433 C 1556.637 760.390, 1554.157 760.452, 1552.074 758.567 C 1549.664 756.386, 1541.153 755.747, 1536.655 757.409 M 1755.170 756.950 C 1750.543 758.104, 1745.006 762.848, 1742.289 767.986 C 1735.274 781.252, 1745.349 797.479, 1760.500 797.316 C 1771.339 797.199, 1780.523 789.491, 1773.990 785.995 C 1772.332 785.107, 1771.567 785.364, 1769.625 787.459 L 1767.271 790 1761.035 790 L 1754.800 790 1751.400 786.600 C 1744.673 779.873, 1747.396 778.375, 1764.562 779.356 C 1770.763 779.710, 1776.549 779.727, 1777.419 779.393 C 1779.806 778.477, 1779.419 771.297, 1776.725 766.542 C 1772.440 758.977, 1763.318 754.917, 1755.170 756.950 M 1820.059 756.828 C 1818.167 757.008, 1815.518 758.020, 1814.174 759.078 C 1811.075 761.515, 1810.291 761.493, 1809.482 758.943 C 1808.973 757.338, 1808.133 756.954, 1805.665 757.193 L 1802.500 757.500 1802.215 775 C 1801.866 796.459, 1802.009 797.224, 1806.284 796.811 L 1809.500 796.500 1810 783.350 L 1810.500 770.201 1812.500 767.962 C 1815.821 764.246, 1820.454 762.776, 1824.994 763.998 C 1827.151 764.579, 1829.272 765.605, 1829.708 766.277 C 1830.144 766.950, 1830.725 774.025, 1831 782 L 1831.500 796.500 1835 796.500 L 1838.500 796.500 1838.780 782.529 C 1839.088 767.140, 1838.572 764.883, 1833.683 760.238 C 1830.417 757.135, 1826.674 756.198, 1820.059 756.828 M 1947.500 757.810 C 1942.157 760.318, 1936.281 766.986, 1935.433 771.503 C 1932.848 785.283, 1941.937 796.946, 1955.290 796.984 C 1963.660 797.007, 1972.108 792.331, 1970.635 788.490 C 1969.613 785.828, 1967.026 785.627, 1964.487 788.012 C 1961.159 791.139, 1951.730 791.415, 1947.812 788.500 C 1944.438 785.990, 1942.549 782.618, 1943.349 780.534 L 1943.963 778.933 1957.563 779.267 C 1973.712 779.664, 1974.575 779.320, 1973.609 772.880 C 1971.726 760.321, 1958.461 752.664, 1947.500 757.810 M 1230.439 758.297 C 1230.166 759.011, 1231.351 762.723, 1233.074 766.547 C 1238.523 778.642, 1243.085 788.410, 1244.567 791.154 C 1246.644 795.001, 1246.339 797.867, 1243.449 801.656 L 1240.898 805 1236.056 805 C 1230.434 805, 1228.905 806.905, 1232.023 810.023 C 1233.409 811.409, 1235.351 812, 1238.516 812 L 1243.032 812 1246.576 808.250 C 1249.049 805.633, 1252.544 798.911, 1258.142 786 C 1262.555 775.825, 1267.025 765.841, 1268.075 763.814 C 1270.426 759.279, 1269.707 756.778, 1266.171 757.196 C 1263.015 757.569, 1261.242 760.467, 1255.408 774.782 C 1253.009 780.668, 1250.602 785.633, 1250.060 785.813 C 1249.518 785.994, 1248.760 784.873, 1248.377 783.321 C 1247.995 781.769, 1245.728 776.335, 1243.341 771.244 C 1240.953 766.153, 1239 761.572, 1239 761.065 C 1239 757.876, 1231.528 755.460, 1230.439 758.297 M 1410.500 758.662 C 1402.888 762.674, 1399 769.044, 1399 777.500 C 1399 789.570, 1406.935 797, 1419.825 797 C 1425.751 797, 1427.920 796.053, 1433.339 791.097 C 1437.595 787.204, 1439.323 783.131, 1439.320 777 C 1439.313 765.217, 1431.140 756.963, 1419.554 757.040 C 1416.039 757.063, 1412.242 757.743, 1410.500 758.662 M 1991.882 758.250 C 1991.707 760.091, 1991.335 759.136, 1999.777 778.500 L 2007.624 796.500 2010.696 796.805 L 2013.769 797.109 2015.756 792.805 C 2016.849 790.437, 2020.126 782.875, 2023.037 776 C 2025.948 769.125, 2028.777 762.772, 2029.323 761.882 C 2030.827 759.432, 2029.405 757, 2026.469 757 L 2023.875 757 2020.812 763.750 C 2019.127 767.462, 2016.487 773.640, 2014.944 777.477 C 2013.401 781.314, 2011.709 784.597, 2011.183 784.772 C 2010.657 784.948, 2009.760 783.833, 2009.189 782.295 C 2006.761 775.755, 1998.563 758.440, 1997.575 757.765 C 1995.828 756.572, 1992.010 756.897, 1991.882 758.250 M 1187.333 764.097 C 1185.591 764.602, 1183.004 766.396, 1181.583 768.084 C 1179.446 770.624, 1179 772.169, 1179 777.042 L 1179 782.930 1182.104 786.465 L 1185.207 790 1191.500 790 L 1197.793 790 1200.896 786.465 L 1204 782.930 1204 776.925 C 1204 769.649, 1201.449 765.497, 1196.057 763.999 C 1191.958 762.861, 1191.590 762.865, 1187.333 764.097 M 1415.019 764.063 C 1408.869 765.439, 1404.923 772.819, 1406.499 779.996 C 1406.880 781.730, 1408.545 784.690, 1410.199 786.574 L 1413.207 790 1418.854 789.968 C 1424.912 789.934, 1427.179 788.791, 1430.163 784.266 C 1433.581 779.083, 1431.594 768.645, 1426.601 765.547 C 1423.668 763.728, 1419.121 763.145, 1415.019 764.063 M 1540 763.652 C 1533.913 765.657, 1530.989 769.888, 1531.015 776.651 C 1531.034 781.687, 1532.756 784.919, 1536.912 787.720 C 1545.718 793.654, 1556.114 787.555, 1556.215 776.395 L 1556.264 770.885 1553.439 767.936 C 1549.883 764.224, 1543.977 762.342, 1540 763.652 M 1754.500 764.403 C 1750.549 766.147, 1747.608 769.537, 1748.356 771.486 C 1748.853 772.781, 1750.837 773.026, 1759.978 772.926 L 1771 772.805 1770.967 771.152 C 1770.920 768.811, 1767.672 765.206, 1764.536 764.014 C 1761.021 762.677, 1758.157 762.788, 1754.500 764.403 M 1949.500 764.350 C 1945.766 766.064, 1942.653 769.460, 1943.230 771.192 C 1943.552 772.157, 1946.598 772.527, 1954.833 772.603 L 1966 772.706 1966 771.040 C 1966 770.124, 1964.700 768.129, 1963.112 766.607 C 1959.675 763.314, 1953.859 762.350, 1949.500 764.350 M 871 774.045 C 856.975 774.415, 842.575 774.809, 839 774.922 L 832.500 775.127 835 776.164 C 838.368 777.561, 1067.042 779.374, 1078.320 778.093 C 1078.770 778.042, 1078.995 776.987, 1078.820 775.750 L 1078.500 773.500 987.500 773.437 C 937.450 773.402, 885.025 773.676, 871 774.045 M 2118.667 773.667 C 2118.300 774.033, 2118 775.104, 2118 776.047 L 2118 777.760 2177.250 778.467 C 2209.838 778.856, 2275.200 778.797, 2322.500 778.337 L 2408.500 777.500 2408.500 776 L 2408.500 774.500 2383 773.891 C 2347.513 773.044, 2119.483 772.850, 2118.667 773.667" stroke="none" fill="#000000" fill-rule="evenodd"/>
</svg>